
<svg xmlns="http://www.w3.org/2000/svg" version="1.1" xmlns:xlink="http://www.w3.org/1999/xlink" xmlns:svgjs="http://svgjs.com/svgjs" width="1920" height="1080" preserveAspectRatio="none" viewBox="0 0 1920 1080"><g mask="url(&quot;#SvgjsMask1027&quot;)" fill="none"><rect width="1920" height="1080" x="0" y="0" fill="rgba(5, 5, 5, 1)"></rect><path d="M 0,126 C 76.8,168 230.4,327.2 384,336 C 537.6,344.8 614.4,151 768,170 C 921.6,189 998.4,458.4 1152,431 C 1305.6,403.6 1382.4,58.6 1536,33 C 1689.6,7.4 1843.2,249 1920,303L1920 1080L0 1080z" fill="rgba(9, 9, 9, 1)"></path><path d="M 0,712 C 128,768 384,988.4 640,992 C 896,995.6 1024,714.8 1280,730 C 1536,745.2 1792,1000.4 1920,1068L1920 1080L0 1080z" fill="rgba(0, 0, 0, 1)"></path></g><defs><mask id="SvgjsMask1027"><rect width="1920" height="1080" fill="#ffffff"></rect></mask></defs></svg>